<svg width="375" height="24" xmlns="http://www.w3.org/2000/svg">
  <rect x="0" y="0" width="24" height="24" rx="3" fill="#E8F0FF" stroke="#ffffff" stroke-opacity="0.15" stroke-width="0.5"><title>#E8F0FF · PRIMARY_COLOR</title></rect>
  <rect x="27" y="0" width="24" height="24" rx="3" fill="#1E1B5E" stroke="#ffffff" stroke-opacity="0.15" stroke-width="0.5"><title>#1E1B5E · SECONDARY_BGCOLOR</title></rect>
  <rect x="54" y="0" width="24" height="24" rx="3" fill="#FF2D78" stroke="#ffffff" stroke-opacity="0.15" stroke-width="0.5"><title>#FF2D78 · HIGHLIGHT_COLOR</title></rect>
  <rect x="81" y="0" width="24" height="24" rx="3" fill="#5558A0" stroke="#ffffff" stroke-opacity="0.15" stroke-width="0.5"><title>#5558A0 · DISABLE_COLOR</title></rect>
  <rect x="108" y="0" width="24" height="24" rx="3" fill="#0D0B2A" stroke="#ffffff" stroke-opacity="0.15" stroke-width="0.5"><title>#0D0B2A · PRIMARY_BGCOLOR</title></rect>
  <rect x="135" y="0" width="24" height="24" rx="3" fill="#00DDFF" stroke="#ffffff" stroke-opacity="0.15" stroke-width="0.5"><title>#00DDFF · SECONDARY_COLOR</title></rect>
  <rect x="162" y="0" width="24" height="24" rx="3" fill="#00FF9F" stroke="#ffffff" stroke-opacity="0.15" stroke-width="0.5"><title>#00FF9F · SAFE_COLOR</title></rect>
  <rect x="189" y="0" width="24" height="24" rx="3" fill="#06051A" stroke="#ffffff" stroke-opacity="0.15" stroke-width="0.5"><title>#06051A · PAGE_BGCOLOR</title></rect>
  <rect x="216" y="0" width="24" height="24" rx="3" fill="#FF3B5C" stroke="#ffffff" stroke-opacity="0.15" stroke-width="0.5"><title>#FF3B5C · ERROR_COLOR</title></rect>
  <rect x="243" y="0" width="24" height="24" rx="3" fill="#00FF9F" stroke="#ffffff" stroke-opacity="0.15" stroke-width="0.5"><title>#00FF9F · ACTIVE_COLOR</title></rect>
  <rect x="270" y="0" width="24" height="24" rx="3" fill="#9090C8" stroke="#ffffff" stroke-opacity="0.15" stroke-width="0.5"><title>#9090C8 · INACTIVE_COLOR</title></rect>
  <rect x="297" y="0" width="24" height="24" rx="3" fill="#00AACC" stroke="#ffffff" stroke-opacity="0.15" stroke-width="0.5"><title>#00AACC · BUTTON_BORDER_ACTIVE_COLOR</title></rect>
  <rect x="324" y="0" width="24" height="24" rx="3" fill="#151342" stroke="#ffffff" stroke-opacity="0.15" stroke-width="0.5"><title>#151342 · BUTTON_BORDER_COLOR</title></rect>
  <rect x="351" y="0" width="24" height="24" rx="3" fill="#FF8C1A" stroke="#ffffff" stroke-opacity="0.15" stroke-width="0.5"><title>#FF8C1A · WARNING_COLOR</title></rect>
</svg>
