<svg width="375" height="24" xmlns="http://www.w3.org/2000/svg">
  <rect x="0" y="0" width="24" height="24" rx="3" fill="#1F1F1F" stroke="#ffffff" stroke-opacity="0.15" stroke-width="0.5"><title>#1F1F1F · PRIMARY_COLOR</title></rect>
  <rect x="27" y="0" width="24" height="24" rx="3" fill="#CECCC0" stroke="#ffffff" stroke-opacity="0.15" stroke-width="0.5"><title>#CECCC0 · SECONDARY_BGCOLOR</title></rect>
  <rect x="54" y="0" width="24" height="24" rx="3" fill="#644AC9" stroke="#ffffff" stroke-opacity="0.15" stroke-width="0.5"><title>#644AC9 · HIGHLIGHT_COLOR</title></rect>
  <rect x="81" y="0" width="24" height="24" rx="3" fill="#877F5E" stroke="#ffffff" stroke-opacity="0.15" stroke-width="0.5"><title>#877F5E · DISABLE_COLOR</title></rect>
  <rect x="108" y="0" width="24" height="24" rx="3" fill="#FFFFF5" stroke="#ffffff" stroke-opacity="0.15" stroke-width="0.5"><title>#FFFFF5 · PRIMARY_BGCOLOR</title></rect>
  <rect x="135" y="0" width="24" height="24" rx="3" fill="#3E3A2B" stroke="#ffffff" stroke-opacity="0.15" stroke-width="0.5"><title>#3E3A2B · SECONDARY_COLOR</title></rect>
  <rect x="162" y="0" width="24" height="24" rx="3" fill="#089108" stroke="#ffffff" stroke-opacity="0.15" stroke-width="0.5"><title>#089108 · SAFE_COLOR</title></rect>
  <rect x="189" y="0" width="24" height="24" rx="3" fill="#EAEAE0" stroke="#ffffff" stroke-opacity="0.15" stroke-width="0.5"><title>#EAEAE0 · PAGE_BGCOLOR</title></rect>
  <rect x="216" y="0" width="24" height="24" rx="3" fill="#CB3A2A" stroke="#ffffff" stroke-opacity="0.15" stroke-width="0.5"><title>#CB3A2A · ERROR_COLOR</title></rect>
  <rect x="243" y="0" width="24" height="24" rx="3" fill="#089108" stroke="#ffffff" stroke-opacity="0.15" stroke-width="0.5"><title>#089108 · ACTIVE_COLOR</title></rect>
  <rect x="270" y="0" width="24" height="24" rx="3" fill="#3E3A2B" stroke="#ffffff" stroke-opacity="0.15" stroke-width="0.5"><title>#3E3A2B · INACTIVE_COLOR</title></rect>
  <rect x="297" y="0" width="24" height="24" rx="3" fill="#815CD6" stroke="#ffffff" stroke-opacity="0.15" stroke-width="0.5"><title>#815CD6 · BUTTON_BORDER_ACTIVE_COLOR</title></rect>
  <rect x="324" y="0" width="24" height="24" rx="3" fill="#BCBAB3" stroke="#ffffff" stroke-opacity="0.15" stroke-width="0.5"><title>#BCBAB3 · BUTTON_BORDER_COLOR</title></rect>
  <rect x="351" y="0" width="24" height="24" rx="3" fill="#A39514" stroke="#ffffff" stroke-opacity="0.15" stroke-width="0.5"><title>#A39514 · WARNING_COLOR</title></rect>
</svg>
