<svg width="375" height="24" xmlns="http://www.w3.org/2000/svg">
  <rect x="0" y="0" width="24" height="24" rx="3" fill="#F8F8F2" stroke="#ffffff" stroke-opacity="0.15" stroke-width="0.5"><title>#F8F8F2 · PRIMARY_COLOR</title></rect>
  <rect x="27" y="0" width="24" height="24" rx="3" fill="#49483E" stroke="#ffffff" stroke-opacity="0.15" stroke-width="0.5"><title>#49483E · SECONDARY_BGCOLOR</title></rect>
  <rect x="54" y="0" width="24" height="24" rx="3" fill="#66D9E8" stroke="#ffffff" stroke-opacity="0.15" stroke-width="0.5"><title>#66D9E8 · HIGHLIGHT_COLOR</title></rect>
  <rect x="81" y="0" width="24" height="24" rx="3" fill="#75715E" stroke="#ffffff" stroke-opacity="0.15" stroke-width="0.5"><title>#75715E · DISABLE_COLOR</title></rect>
  <rect x="108" y="0" width="24" height="24" rx="3" fill="#272822" stroke="#ffffff" stroke-opacity="0.15" stroke-width="0.5"><title>#272822 · PRIMARY_BGCOLOR</title></rect>
  <rect x="135" y="0" width="24" height="24" rx="3" fill="#CFCFC2" stroke="#ffffff" stroke-opacity="0.15" stroke-width="0.5"><title>#CFCFC2 · SECONDARY_COLOR</title></rect>
  <rect x="162" y="0" width="24" height="24" rx="3" fill="#A6E22E" stroke="#ffffff" stroke-opacity="0.15" stroke-width="0.5"><title>#A6E22E · SAFE_COLOR</title></rect>
  <rect x="189" y="0" width="24" height="24" rx="3" fill="#1E1F1A" stroke="#ffffff" stroke-opacity="0.15" stroke-width="0.5"><title>#1E1F1A · PAGE_BGCOLOR</title></rect>
  <rect x="216" y="0" width="24" height="24" rx="3" fill="#F92672" stroke="#ffffff" stroke-opacity="0.15" stroke-width="0.5"><title>#F92672 · ERROR_COLOR</title></rect>
  <rect x="243" y="0" width="24" height="24" rx="3" fill="#E6DB74" stroke="#ffffff" stroke-opacity="0.15" stroke-width="0.5"><title>#E6DB74 · ACTIVE_COLOR</title></rect>
  <rect x="270" y="0" width="24" height="24" rx="3" fill="#75715E" stroke="#ffffff" stroke-opacity="0.15" stroke-width="0.5"><title>#75715E · INACTIVE_COLOR</title></rect>
  <rect x="297" y="0" width="24" height="24" rx="3" fill="#66D9E8" stroke="#ffffff" stroke-opacity="0.15" stroke-width="0.5"><title>#66D9E8 · BUTTON_BORDER_ACTIVE_COLOR</title></rect>
  <rect x="324" y="0" width="24" height="24" rx="3" fill="#3D3C24" stroke="#ffffff" stroke-opacity="0.15" stroke-width="0.5"><title>#3D3C24 · BUTTON_BORDER_COLOR</title></rect>
  <rect x="351" y="0" width="24" height="24" rx="3" fill="#FD971F" stroke="#ffffff" stroke-opacity="0.15" stroke-width="0.5"><title>#FD971F · WARNING_COLOR</title></rect>
</svg>
