<svg width="375" height="24" xmlns="http://www.w3.org/2000/svg">
  <rect x="0" y="0" width="24" height="24" rx="3" fill="#F8F8F2" stroke="#ffffff" stroke-opacity="0.15" stroke-width="0.5"><title>#F8F8F2 · PRIMARY_COLOR</title></rect>
  <rect x="27" y="0" width="24" height="24" rx="3" fill="#424450" stroke="#ffffff" stroke-opacity="0.15" stroke-width="0.5"><title>#424450 · SECONDARY_BGCOLOR</title></rect>
  <rect x="54" y="0" width="24" height="24" rx="3" fill="#BD93F9" stroke="#ffffff" stroke-opacity="0.15" stroke-width="0.5"><title>#BD93F9 · HIGHLIGHT_COLOR</title></rect>
  <rect x="81" y="0" width="24" height="24" rx="3" fill="#6272A4" stroke="#ffffff" stroke-opacity="0.15" stroke-width="0.5"><title>#6272A4 · DISABLE_COLOR</title></rect>
  <rect x="108" y="0" width="24" height="24" rx="3" fill="#21222C" stroke="#ffffff" stroke-opacity="0.15" stroke-width="0.5"><title>#21222C · PRIMARY_BGCOLOR</title></rect>
  <rect x="135" y="0" width="24" height="24" rx="3" fill="#B8C3E4" stroke="#ffffff" stroke-opacity="0.15" stroke-width="0.5"><title>#B8C3E4 · SECONDARY_COLOR</title></rect>
  <rect x="162" y="0" width="24" height="24" rx="3" fill="#69FF94" stroke="#ffffff" stroke-opacity="0.15" stroke-width="0.5"><title>#69FF94 · SAFE_COLOR</title></rect>
  <rect x="189" y="0" width="24" height="24" rx="3" fill="#191A21" stroke="#ffffff" stroke-opacity="0.15" stroke-width="0.5"><title>#191A21 · PAGE_BGCOLOR</title></rect>
  <rect x="216" y="0" width="24" height="24" rx="3" fill="#DE5735" stroke="#ffffff" stroke-opacity="0.15" stroke-width="0.5"><title>#DE5735 · ERROR_COLOR</title></rect>
  <rect x="243" y="0" width="24" height="24" rx="3" fill="#69FF94" stroke="#ffffff" stroke-opacity="0.15" stroke-width="0.5"><title>#69FF94 · ACTIVE_COLOR</title></rect>
  <rect x="270" y="0" width="24" height="24" rx="3" fill="#B8C3E4" stroke="#ffffff" stroke-opacity="0.15" stroke-width="0.5"><title>#B8C3E4 · INACTIVE_COLOR</title></rect>
  <rect x="297" y="0" width="24" height="24" rx="3" fill="#815CD6" stroke="#ffffff" stroke-opacity="0.15" stroke-width="0.5"><title>#815CD6 · BUTTON_BORDER_ACTIVE_COLOR</title></rect>
  <rect x="324" y="0" width="24" height="24" rx="3" fill="#505261" stroke="#ffffff" stroke-opacity="0.15" stroke-width="0.5"><title>#505261 · BUTTON_BORDER_COLOR</title></rect>
  <rect x="351" y="0" width="24" height="24" rx="3" fill="#A39514" stroke="#ffffff" stroke-opacity="0.15" stroke-width="0.5"><title>#A39514 · WARNING_COLOR</title></rect>
</svg>
