<svg width="375" height="24" xmlns="http://www.w3.org/2000/svg">
  <rect x="0" y="0" width="24" height="24" rx="3" fill="#2A0820" stroke="#ffffff" stroke-opacity="0.15" stroke-width="0.5"><title>#2A0820 · PRIMARY_COLOR</title></rect>
  <rect x="27" y="0" width="24" height="24" rx="3" fill="#FFE8F2" stroke="#ffffff" stroke-opacity="0.15" stroke-width="0.5"><title>#FFE8F2 · SECONDARY_BGCOLOR</title></rect>
  <rect x="54" y="0" width="24" height="24" rx="3" fill="#A40055" stroke="#ffffff" stroke-opacity="0.15" stroke-width="0.5"><title>#A40055 · HIGHLIGHT_COLOR</title></rect>
  <rect x="81" y="0" width="24" height="24" rx="3" fill="#B06090" stroke="#ffffff" stroke-opacity="0.15" stroke-width="0.5"><title>#B06090 · DISABLE_COLOR</title></rect>
  <rect x="108" y="0" width="24" height="24" rx="3" fill="#FFCCE5" stroke="#ffffff" stroke-opacity="0.15" stroke-width="0.5"><title>#FFCCE5 · PRIMARY_BGCOLOR</title></rect>
  <rect x="135" y="0" width="24" height="24" rx="3" fill="#6B1040" stroke="#ffffff" stroke-opacity="0.15" stroke-width="0.5"><title>#6B1040 · SECONDARY_COLOR</title></rect>
  <rect x="162" y="0" width="24" height="24" rx="3" fill="#4B724B" stroke="#ffffff" stroke-opacity="0.15" stroke-width="0.5"><title>#4B724B · SAFE_COLOR</title></rect>
  <rect x="189" y="0" width="24" height="24" rx="3" fill="#FFB9DC" stroke="#ffffff" stroke-opacity="0.15" stroke-width="0.5"><title>#FFB9DC · PAGE_BGCOLOR</title></rect>
  <rect x="216" y="0" width="24" height="24" rx="3" fill="#C9002F" stroke="#ffffff" stroke-opacity="0.15" stroke-width="0.5"><title>#C9002F · ERROR_COLOR</title></rect>
  <rect x="243" y="0" width="24" height="24" rx="3" fill="#4B724B" stroke="#ffffff" stroke-opacity="0.15" stroke-width="0.5"><title>#4B724B · ACTIVE_COLOR</title></rect>
  <rect x="270" y="0" width="24" height="24" rx="3" fill="#6B1040" stroke="#ffffff" stroke-opacity="0.15" stroke-width="0.5"><title>#6B1040 · INACTIVE_COLOR</title></rect>
  <rect x="297" y="0" width="24" height="24" rx="3" fill="#B5005E" stroke="#ffffff" stroke-opacity="0.15" stroke-width="0.5"><title>#B5005E · BUTTON_BORDER_ACTIVE_COLOR</title></rect>
  <rect x="324" y="0" width="24" height="24" rx="3" fill="#F2ACD2" stroke="#ffffff" stroke-opacity="0.15" stroke-width="0.5"><title>#F2ACD2 · BUTTON_BORDER_COLOR</title></rect>
  <rect x="351" y="0" width="24" height="24" rx="3" fill="#E17101" stroke="#ffffff" stroke-opacity="0.15" stroke-width="0.5"><title>#E17101 · WARNING_COLOR</title></rect>
</svg>
