<svg width="375" height="24" xmlns="http://www.w3.org/2000/svg">
  <rect x="0" y="0" width="24" height="24" rx="3" fill="#F0E6FF" stroke="#ffffff" stroke-opacity="0.15" stroke-width="0.5"><title>#F0E6FF · PRIMARY_COLOR</title></rect>
  <rect x="27" y="0" width="24" height="24" rx="3" fill="#2D1654" stroke="#ffffff" stroke-opacity="0.15" stroke-width="0.5"><title>#2D1654 · SECONDARY_BGCOLOR</title></rect>
  <rect x="54" y="0" width="24" height="24" rx="3" fill="#BF00FF" stroke="#ffffff" stroke-opacity="0.15" stroke-width="0.5"><title>#BF00FF · HIGHLIGHT_COLOR</title></rect>
  <rect x="81" y="0" width="24" height="24" rx="3" fill="#6B4D8A" stroke="#ffffff" stroke-opacity="0.15" stroke-width="0.5"><title>#6B4D8A · DISABLE_COLOR</title></rect>
  <rect x="108" y="0" width="24" height="24" rx="3" fill="#0D0221" stroke="#ffffff" stroke-opacity="0.15" stroke-width="0.5"><title>#0D0221 · PRIMARY_BGCOLOR</title></rect>
  <rect x="135" y="0" width="24" height="24" rx="3" fill="#C4AEFF" stroke="#ffffff" stroke-opacity="0.15" stroke-width="0.5"><title>#C4AEFF · SECONDARY_COLOR</title></rect>
  <rect x="162" y="0" width="24" height="24" rx="3" fill="#00FFCC" stroke="#ffffff" stroke-opacity="0.15" stroke-width="0.5"><title>#00FFCC · SAFE_COLOR</title></rect>
  <rect x="189" y="0" width="24" height="24" rx="3" fill="#1A0A38" stroke="#ffffff" stroke-opacity="0.15" stroke-width="0.5"><title>#1A0A38 · PAGE_BGCOLOR</title></rect>
  <rect x="216" y="0" width="24" height="24" rx="3" fill="#FF2D55" stroke="#ffffff" stroke-opacity="0.15" stroke-width="0.5"><title>#FF2D55 · ERROR_COLOR</title></rect>
  <rect x="243" y="0" width="24" height="24" rx="3" fill="#00FFCC" stroke="#ffffff" stroke-opacity="0.15" stroke-width="0.5"><title>#00FFCC · ACTIVE_COLOR</title></rect>
  <rect x="270" y="0" width="24" height="24" rx="3" fill="#C4AEFF" stroke="#ffffff" stroke-opacity="0.15" stroke-width="0.5"><title>#C4AEFF · INACTIVE_COLOR</title></rect>
  <rect x="297" y="0" width="24" height="24" rx="3" fill="#FF00CC" stroke="#ffffff" stroke-opacity="0.15" stroke-width="0.5"><title>#FF00CC · BUTTON_BORDER_ACTIVE_COLOR</title></rect>
  <rect x="324" y="0" width="24" height="24" rx="3" fill="#3D2060" stroke="#ffffff" stroke-opacity="0.15" stroke-width="0.5"><title>#3D2060 · BUTTON_BORDER_COLOR</title></rect>
  <rect x="351" y="0" width="24" height="24" rx="3" fill="#FF9500" stroke="#ffffff" stroke-opacity="0.15" stroke-width="0.5"><title>#FF9500 · WARNING_COLOR</title></rect>
</svg>
