<svg width="375" height="24" xmlns="http://www.w3.org/2000/svg">
  <rect x="0" y="0" width="24" height="24" rx="3" fill="#D00100" stroke="#ffffff" stroke-opacity="0.15" stroke-width="0.5"><title>#D00100 · PRIMARY_COLOR</title></rect>
  <rect x="27" y="0" width="24" height="24" rx="3" fill="#6B1000" stroke="#ffffff" stroke-opacity="0.15" stroke-width="0.5"><title>#6B1000 · SECONDARY_BGCOLOR</title></rect>
  <rect x="54" y="0" width="24" height="24" rx="3" fill="#D81800" stroke="#ffffff" stroke-opacity="0.15" stroke-width="0.5"><title>#D81800 · HIGHLIGHT_COLOR</title></rect>
  <rect x="81" y="0" width="24" height="24" rx="3" fill="#C86060" stroke="#ffffff" stroke-opacity="0.15" stroke-width="0.5"><title>#C86060 · DISABLE_COLOR</title></rect>
  <rect x="108" y="0" width="24" height="24" rx="3" fill="#180000" stroke="#ffffff" stroke-opacity="0.15" stroke-width="0.5"><title>#180000 · PRIMARY_BGCOLOR</title></rect>
  <rect x="135" y="0" width="24" height="24" rx="3" fill="#800000" stroke="#ffffff" stroke-opacity="0.15" stroke-width="0.5"><title>#800000 · SECONDARY_COLOR</title></rect>
  <rect x="162" y="0" width="24" height="24" rx="3" fill="#44AA44" stroke="#ffffff" stroke-opacity="0.15" stroke-width="0.5"><title>#44AA44 · SAFE_COLOR</title></rect>
  <rect x="189" y="0" width="24" height="24" rx="3" fill="#000000" stroke="#ffffff" stroke-opacity="0.15" stroke-width="0.5"><title>#000000 · PAGE_BGCOLOR</title></rect>
  <rect x="216" y="0" width="24" height="24" rx="3" fill="#FF5500" stroke="#ffffff" stroke-opacity="0.15" stroke-width="0.5"><title>#FF5500 · ERROR_COLOR</title></rect>
  <rect x="243" y="0" width="24" height="24" rx="3" fill="#FF4400" stroke="#ffffff" stroke-opacity="0.15" stroke-width="0.5"><title>#FF4400 · ACTIVE_COLOR</title></rect>
  <rect x="270" y="0" width="24" height="24" rx="3" fill="#5A1800" stroke="#ffffff" stroke-opacity="0.15" stroke-width="0.5"><title>#5A1800 · INACTIVE_COLOR</title></rect>
  <rect x="297" y="0" width="24" height="24" rx="3" fill="#FF4400" stroke="#ffffff" stroke-opacity="0.15" stroke-width="0.5"><title>#FF4400 · BUTTON_BORDER_ACTIVE_COLOR</title></rect>
  <rect x="324" y="0" width="24" height="24" rx="3" fill="#400A00" stroke="#ffffff" stroke-opacity="0.15" stroke-width="0.5"><title>#400A00 · BUTTON_BORDER_COLOR</title></rect>
  <rect x="351" y="0" width="24" height="24" rx="3" fill="#FFAA00" stroke="#ffffff" stroke-opacity="0.15" stroke-width="0.5"><title>#FFAA00 · WARNING_COLOR</title></rect>
</svg>
