<svg width="375" height="24" xmlns="http://www.w3.org/2000/svg">
  <rect x="0" y="0" width="24" height="24" rx="3" fill="#00D238" stroke="#ffffff" stroke-opacity="0.15" stroke-width="0.5"><title>#00D238 · PRIMARY_COLOR</title></rect>
  <rect x="27" y="0" width="24" height="24" rx="3" fill="#003300" stroke="#ffffff" stroke-opacity="0.15" stroke-width="0.5"><title>#003300 · SECONDARY_BGCOLOR</title></rect>
  <rect x="54" y="0" width="24" height="24" rx="3" fill="#00FF41" stroke="#ffffff" stroke-opacity="0.15" stroke-width="0.5"><title>#00FF41 · HIGHLIGHT_COLOR</title></rect>
  <rect x="81" y="0" width="24" height="24" rx="3" fill="#1A8C32" stroke="#ffffff" stroke-opacity="0.15" stroke-width="0.5"><title>#1A8C32 · DISABLE_COLOR</title></rect>
  <rect x="108" y="0" width="24" height="24" rx="3" fill="#001000" stroke="#ffffff" stroke-opacity="0.15" stroke-width="0.5"><title>#001000 · PRIMARY_BGCOLOR</title></rect>
  <rect x="135" y="0" width="24" height="24" rx="3" fill="#009423" stroke="#ffffff" stroke-opacity="0.15" stroke-width="0.5"><title>#009423 · SECONDARY_COLOR</title></rect>
  <rect x="162" y="0" width="24" height="24" rx="3" fill="#AAFF00" stroke="#ffffff" stroke-opacity="0.15" stroke-width="0.5"><title>#AAFF00 · SAFE_COLOR</title></rect>
  <rect x="189" y="0" width="24" height="24" rx="3" fill="#000000" stroke="#ffffff" stroke-opacity="0.15" stroke-width="0.5"><title>#000000 · PAGE_BGCOLOR</title></rect>
  <rect x="216" y="0" width="24" height="24" rx="3" fill="#FF3300" stroke="#ffffff" stroke-opacity="0.15" stroke-width="0.5"><title>#FF3300 · ERROR_COLOR</title></rect>
  <rect x="243" y="0" width="24" height="24" rx="3" fill="#00FF41" stroke="#ffffff" stroke-opacity="0.15" stroke-width="0.5"><title>#00FF41 · ACTIVE_COLOR</title></rect>
  <rect x="270" y="0" width="24" height="24" rx="3" fill="#006B1A" stroke="#ffffff" stroke-opacity="0.15" stroke-width="0.5"><title>#006B1A · INACTIVE_COLOR</title></rect>
  <rect x="297" y="0" width="24" height="24" rx="3" fill="#00FF41" stroke="#ffffff" stroke-opacity="0.15" stroke-width="0.5"><title>#00FF41 · BUTTON_BORDER_ACTIVE_COLOR</title></rect>
  <rect x="324" y="0" width="24" height="24" rx="3" fill="#004800" stroke="#ffffff" stroke-opacity="0.15" stroke-width="0.5"><title>#004800 · BUTTON_BORDER_COLOR</title></rect>
  <rect x="351" y="0" width="24" height="24" rx="3" fill="#FFAA00" stroke="#ffffff" stroke-opacity="0.15" stroke-width="0.5"><title>#FFAA00 · WARNING_COLOR</title></rect>
</svg>
